HIERARCHY
ROOT RootJoint
{
    OFFSET   0.000000   0.000000   0.000000
    CHANNELS 6 Xposition Yposition Zposition Xrotation Yrotation Zrotation
    JOINT pelvis_lowerback
    {
        OFFSET   0.000000   0.093605   0.000000
        CHANNELS 3 Xrotation Yrotation Zrotation
        JOINT lowerback_torso
        {
            OFFSET   0.000000   0.100000   0.000000
            CHANNELS 3 Xrotation Yrotation Zrotation
            JOINT torso_head
            {
                OFFSET   0.000000   0.282350   0.000000
                CHANNELS 3 Xrotation Yrotation Zrotation
                End Site
                {
                    OFFSET   0.000000   0.192650   0.000000
                }
            }
            JOINT rTorso_Clavicle
            {
                OFFSET  -0.001000   0.157500   0.000000
                CHANNELS 3 Xrotation Yrotation Zrotation
                JOINT rShoulder
                {
                    OFFSET  -0.117647   0.000000   0.000000
                    CHANNELS 3 Xrotation Yrotation Zrotation
                    JOINT rElbow
                    {
                        OFFSET  -0.245000   0.000000   0.000000
                        CHANNELS 3 Xrotation Yrotation Zrotation
                        JOINT rWrist
                        {
                            OFFSET  -0.240000   0.000000   0.000000
                            CHANNELS 3 Xrotation Yrotation Zrotation
                            End Site
                            {
                                OFFSET  -0.116353  -0.002500   0.000000
                            }
                        }
                    }
                }
            }
            JOINT lTorso_Clavicle
            {
                OFFSET   0.001000   0.157500   0.000000
                CHANNELS 3 Xrotation Yrotation Zrotation
                JOINT lShoulder
                {
                    OFFSET   0.117647   0.000000   0.000000
                    CHANNELS 3 Xrotation Yrotation Zrotation
                    JOINT lElbow
                    {
                        OFFSET   0.245000   0.000000   0.000000
                        CHANNELS 3 Xrotation Yrotation Zrotation
                        JOINT lWrist
                        {
                            OFFSET   0.240000   0.000000   0.000000
                            CHANNELS 3 Xrotation Yrotation Zrotation
                            End Site
                            {
                                OFFSET   0.116353  -0.002500   0.000000
                            }
                        }
                    }
                }
            }
        }
    }
    JOINT rHip
    {
        OFFSET  -0.100000  -0.051395   0.000000
        CHANNELS 3 Xrotation Yrotation Zrotation
        JOINT rKnee
        {
            OFFSET   0.000000  -0.410000   0.000000
            CHANNELS 3 Xrotation Yrotation Zrotation
            JOINT rAnkle
            {
                OFFSET   0.000000  -0.390000   0.000000
                CHANNELS 3 Xrotation Yrotation Zrotation
                JOINT rToeJoint
                {
                    OFFSET   0.000000  -0.050000   0.130000
                    CHANNELS 3 Xrotation Yrotation Zrotation
                    End Site
                    {
                        OFFSET  -0.010000   0.002000   0.060000
                    }
                }
            }
        }
    }
    JOINT lHip
    {
        OFFSET   0.100000  -0.051395   0.000000
        CHANNELS 3 Xrotation Yrotation Zrotation
        JOINT lKnee
        {
            OFFSET   0.000000  -0.410000   0.000000
            CHANNELS 3 Xrotation Yrotation Zrotation
            JOINT lAnkle
            {
                OFFSET   0.000000  -0.390000   0.000000
                CHANNELS 3 Xrotation Yrotation Zrotation
                JOINT lToeJoint
                {
                    OFFSET   0.000000  -0.050000   0.130000
                    CHANNELS 3 Xrotation Yrotation Zrotation
                    End Site
                    {
                        OFFSET   0.010000   0.002000   0.060000
                    }
                }
            }
        }
    }
}
MOTION
Frames: 10
Frame Time:   0.008333
 -2.264966   0.895854   3.533857 -17.377828 -49.421845 -15.552705   9.857052  -0.310060  -2.605135   2.182583  -1.948539   0.040492  -0.305358  -1.177442   0.882694  -1.316528 -11.992461  -2.110551  -9.504844 -12.941331  54.451395 179.987360  69.240405 -179.989226  -0.844070   6.709898 -12.422090   0.912603  10.833242   2.938530 -10.066175   3.908553 -59.138705 179.995047 -65.680717 -179.998743  -0.952872  -6.470496  16.798314   2.409816  -4.072960 -13.082204  25.831723  -0.000176  -0.000476  -3.298756  -5.644427   4.858956 -18.451629   0.000034  -0.000265   9.534610   1.402607  14.526615  15.532742  -0.000327  -0.001332 -15.521470   1.395775   1.263972   2.156340  -0.000030  -0.000029
 -2.265900   0.895339   3.534304 -17.832807 -49.514409 -15.948476   9.685156  -0.385798  -2.632965   2.400230  -1.979872   0.053544  -0.134653  -1.213531   0.932630  -1.277135 -12.123936  -1.976588  -9.470781 -13.060369  54.586406 179.985174  69.559810 -179.987052  -0.914376   6.710879 -12.357263   0.952984  10.900950   2.872622 -10.245658   3.969165 -59.218251 179.994861 -66.065551 -179.999374  -1.032263  -6.407398  16.739176   2.623990  -3.971411 -13.050077  26.054303  -0.000197  -0.000524  -3.548863  -5.572577   4.774268 -18.368854   0.000065  -0.000199   9.830402   1.320110  14.530975  15.836831  -0.000414  -0.001736 -15.890490   1.354232   1.274608   2.160889  -0.000024  -0.000035
 -2.266798   0.894809   3.534698 -18.263681 -49.610756 -16.325716   9.531543  -0.459041  -2.654525   2.604379  -2.010444   0.066662   0.027434  -1.247443   0.980011  -1.247963 -12.256628  -1.857565  -9.447945 -13.182222  54.703135 179.983605  69.866313 -179.985412  -0.987518   6.677125 -12.370547   0.985864  10.973354   2.811967 -10.417679   4.034916 -59.288084 179.994864 -66.427862 -179.999856  -1.109087  -6.338451  16.738048   2.819378  -3.865030 -13.018413  26.272988  -0.000212  -0.000553  -3.808811  -5.500469   4.697515 -18.264024   0.000090  -0.000141  10.100268   1.237881  14.534621  16.142853  -0.000491  -0.002059 -16.230784   1.314311   1.283501   2.160135  -0.000019  -0.000026
 -2.267673   0.894284   3.535053 -18.672221 -49.707854 -16.687573   9.390844  -0.529805  -2.669405   2.798660  -2.040830   0.081436   0.180172  -1.279015   1.024819  -1.221145 -12.385075  -1.749356  -9.427610 -13.299541  54.808444 179.982738  70.154069 -179.984433  -1.059843   6.633076 -12.412315   1.016843  11.043958   2.755361 -10.577825   4.098896 -59.351933 179.995083 -66.766597 179.999881  -1.183315  -6.269404  16.755782   3.000998  -3.759530 -12.985118  26.481709  -0.000222  -0.000567  -4.065198  -5.427338   4.629079 -18.152590   0.000104  -0.000093  10.354595   1.159157  14.539935  16.435377  -0.000549  -0.002273 -16.547761   1.276734   1.292038   2.160368  -0.000015  -0.000021
 -2.268524   0.893776   3.535375 -19.056901 -49.803804 -17.032378   9.260949  -0.598417  -2.678570   2.982726  -2.071246   0.098145   0.323543  -1.308420   1.067222  -1.195477 -12.507604  -1.649349  -9.408234 -13.410814  54.905165 179.982442  70.423297 -179.984012  -1.130015   6.586719 -12.462962   1.046418  11.110699   2.702104 -10.726582   4.159426 -59.411278 179.995451 -67.082906 179.999784  -1.254795  -6.202039  16.776800   3.169087  -3.656738 -12.950309  26.679724  -0.000228  -0.000568  -4.313550  -5.354717   4.567765 -18.040398   0.000109  -0.000056  10.594777   1.084015  14.546856  16.710563  -0.000587  -0.002390 -16.844329   1.241421   1.300484   2.161006  -0.000012  -0.000019
 -2.269349   0.893286   3.535669 -19.417427 -49.897443 -17.359131   9.140824  -0.664843  -2.682878   3.156567  -2.101575   0.116629   0.457879  -1.335812   1.107318  -1.170845 -12.623551  -1.556233  -9.389568 -13.515689  54.994713 179.982587  70.674959 -179.984031  -1.197735   6.540358 -12.516119   1.074439  11.172850   2.651959 -10.864972   4.216042 -59.466784 179.995905 -67.378134 179.999798  -1.323463  -6.137123  16.796446   3.324222  -3.557486 -12.914584  26.867037  -0.000230  -0.000558  -4.552195  -5.283718   4.512679 -17.929967   0.000107  -0.000027  10.821347   1.012366  14.554923  16.967694  -0.000608  -0.002427 -17.122249   1.208283   1.308845   2.161772  -0.000010  -0.000017
 -2.270148   0.892816   3.535940 -19.754206 -49.988057 -17.667485   9.029744  -0.728895  -2.683015   3.320498  -2.131540   0.136636   0.583654  -1.361328   1.145202  -1.147318 -12.732726  -1.469297  -9.371643 -13.614194  55.077922 179.983062  70.910113 -179.984384  -1.262969   6.494785 -12.569468   1.100789  11.230312   2.604833 -10.993914   4.268724 -59.518809 179.996395 -67.653604 179.999879  -1.389302  -6.075063  16.813495   3.467211  -3.462221 -12.878544  27.043889  -0.000227  -0.000539  -4.780501  -5.215059   4.463112 -17.822607   0.000100  -0.000005  11.034769   0.944111  14.563691  17.207166  -0.000612  -0.002402 -17.382855   1.177229   1.317069   2.162558  -0.000008  -0.000015
 -2.270721   0.892345   3.536106 -19.872934 -50.088770 -17.799789   8.843114  -0.804202  -2.685822   3.444810  -2.177563   0.173124   0.688257  -1.384088   1.186081  -1.153323 -12.887822  -1.407000  -9.537310 -13.781571  55.140464 179.981984  71.159040 -179.983174  -1.348436   6.411023 -12.480500   1.110795  11.338837   2.568355 -11.188841   4.385752 -59.618280 179.996230 -67.864680 179.999278  -1.468205  -5.964151  16.737441   3.434668  -3.378916 -12.852951  27.256606  -0.000223  -0.000523  -4.991063  -5.157877   4.424871 -17.732385   0.000089   0.000007  11.029622   0.894656  14.580671  17.519921  -0.000626  -0.002328 -17.641970   1.171405   1.302666   2.171854  -0.000005  -0.000025
 -2.271211   0.891909   3.536263 -19.964746 -50.187568 -17.905835   8.676000  -0.873891  -2.682550   3.554676  -2.220695   0.208640   0.787121  -1.405535   1.226174  -1.178303 -13.036869  -1.372240  -9.714077 -13.944260  55.183355 179.981561  71.390255 -179.982578  -1.428385   6.337291 -12.484708   1.110606  11.446487   2.542598 -11.379732   4.500296 -59.708284 179.996216 -68.055212 179.998837  -1.535019  -5.886639  16.715127   3.390759  -3.297894 -12.833355  27.449665  -0.000210  -0.000494  -5.185936  -5.106172   4.388860 -17.641797   0.000082   0.000017  11.010218   0.842037  14.589583  17.811497  -0.000617  -0.002234 -17.882298   1.157792   1.285421   2.181555  -0.000003  -0.000034
 -2.271646   0.891507   3.536417 -20.041394 -50.284300 -17.997094   8.524417  -0.937328  -2.674815   3.658295  -2.259233   0.243362   0.880697  -1.425429   1.264720  -1.208440 -13.175642  -1.352540  -9.887341 -14.096575  55.215407 179.981745  71.604353 -179.982591  -1.502336   6.278100 -12.522703   1.107027  11.548414   2.524710 -11.561157   4.608462 -59.788913 179.996335 -68.231060 179.998562  -1.594510  -5.826855  16.712480   3.343971  -3.219523 -12.816835  27.623908  -0.000192  -0.000458  -5.366044  -5.058063   4.354301 -17.553129   0.000076   0.000025  10.988110   0.787699  14.593136  18.079425  -0.000593  -0.002125 -18.105576   1.140674   1.269187   2.190518  -0.000001  -0.000041
